Genre:Comedy
Language:English
IMDb:http://www.imdb.com/title/tt1375670/
Source:DVD5 RUS

General
Complete name :Grown.Ups.R5.LINE.H264.FEEL-FREE
Format : MPEG-4
Format profile : Base Media
Codec ID : isom
File size : 1.14 GiB
Duration : 1h 38mn
Overall bit rate : 1 669 Kbps
Video #1
Codec ID : 20
Duration : 1h 38mn
Bit rate mode : Variable
Bit rate : 1 499 Kbps
Width : 652 pixels
Height : 352 pixels
Display aspect ratio : 1.852
Frame rate mode : Constant
Frame rate : 25.000 fps
Resolution : 24 bits
Colorimetry : 4:2:0
Scan type : Progressive
Bits/(Pixel*Frame) : 0.261
Stream size : 1.03 GiB (90%)
Audio #2
ID : 2
Format : AAC
Format/Info : Advanced Audio Codec
Format version : Version 4
Format profile : LC
Format settings, SBR : No
Codec ID : 40
Duration : 1h 38mn
Bit rate mode : Variable
Bit rate : 165 Kbps
Channel(s) : 2 channels
Channel positions : L R
Sampling rate : 48.0 KHz
Resolution : 16 bits
Stream size : 116 MiB (10%)
Plot
After their high school basketball coach passes away, five good friends and former teammates reunite for a Fourth of July holiday weekend

  
http://thepiratebay.org/user/hiest


Screenshots:
 
http://www.starshare.ro/bitbucket/Grown.Ups.R5.LINE.H264.FEEL-FREE.mp4_snapshot_00.11.37_%5B2010.08.28_01.33.35%5D.jpg
 
http://www.starshare.ro/bitbucket/vlcsnap-2010-08-28-01h31m07s136.jpg
 
http://www.starshare.ro/bitbucket/Grown.Ups.R5.LINE.H264.FEEL-FREE.mp4_snapshot_00.15.27_%5B2010.08.28_01.34.46%5D.jpg
 
http://www.starshare.ro/bitbucket/vlcsnap-2010-08-28-01h32m48s124.jpg
 
http://www.starshare.ro/bitbucket/Grown.Ups.R5.LINE.H264.FEEL-FREE.mp4_thumbs_%5B2010.08.28_01.27.20%5D.jpg